<mxfile host="www.draw.io" modified="2019-12-17T02:59:17.172Z" agent="Mozilla/5.0 (Windows NT 10.0; Win64; x64) AppleWebKit/537.36 (KHTML, like Gecko) Chrome/79.0.3945.79 Safari/537.36" etag="kBQ0AOxnC8-VQrgrz1ZP" version="12.4.2" type="github" pages="1">
  <diagram id="rW7b4nVCKHTJPiQgu7Rn" name="第 1 页">
    <mxGraphModel dx="1422" dy="762" grid="1" gridSize="10" guides="1" tooltips="1" connect="1" arrows="1" fold="1" page="1" pageScale="1" pageWidth="827" pageHeight="1169" math="0" shadow="0">
      <root>
        <mxCell id="0"/>
        <mxCell id="1" parent="0"/>
        <mxCell id="9NOth7-igrCUzFacUM3O-12" value="bz_order_info" style="swimlane;fontStyle=0;childLayout=stackLayout;horizontal=1;startSize=26;fillColor=#e0e0e0;horizontalStack=0;resizeParent=1;resizeParentMax=0;resizeLast=0;collapsible=1;marginBottom=0;swimlaneFillColor=#ffffff;align=center;fontSize=14;" vertex="1" parent="1">
          <mxGeometry x="310" y="280" width="160" height="104" as="geometry">
            <mxRectangle x="130" y="220" width="120" height="26" as="alternateBounds"/>
          </mxGeometry>
        </mxCell>
        <mxCell id="9NOth7-igrCUzFacUM3O-13" value="Row 1" style="text;strokeColor=none;fillColor=none;spacingLeft=4;spacingRight=4;overflow=hidden;rotatable=0;points=[[0,0.5],[1,0.5]];portConstraint=eastwest;fontSize=12;" vertex="1" parent="9NOth7-igrCUzFacUM3O-12">
          <mxGeometry y="26" width="160" height="26" as="geometry"/>
        </mxCell>
        <mxCell id="9NOth7-igrCUzFacUM3O-14" value="Row 2" style="text;strokeColor=none;fillColor=none;spacingLeft=4;spacingRight=4;overflow=hidden;rotatable=0;points=[[0,0.5],[1,0.5]];portConstraint=eastwest;fontSize=12;" vertex="1" parent="9NOth7-igrCUzFacUM3O-12">
          <mxGeometry y="52" width="160" height="26" as="geometry"/>
        </mxCell>
        <mxCell id="9NOth7-igrCUzFacUM3O-15" value="Row 3" style="text;strokeColor=none;fillColor=none;spacingLeft=4;spacingRight=4;overflow=hidden;rotatable=0;points=[[0,0.5],[1,0.5]];portConstraint=eastwest;fontSize=12;" vertex="1" parent="9NOth7-igrCUzFacUM3O-12">
          <mxGeometry y="78" width="160" height="26" as="geometry"/>
        </mxCell>
        <mxCell id="9NOth7-igrCUzFacUM3O-19" value="bz_hire_contract" style="swimlane;fontStyle=0;childLayout=stackLayout;horizontal=1;startSize=26;fillColor=#e0e0e0;horizontalStack=0;resizeParent=1;resizeParentMax=0;resizeLast=0;collapsible=1;marginBottom=0;swimlaneFillColor=#ffffff;align=center;fontSize=14;" vertex="1" parent="1">
          <mxGeometry x="590" y="280" width="160" height="104" as="geometry">
            <mxRectangle x="130" y="220" width="120" height="26" as="alternateBounds"/>
          </mxGeometry>
        </mxCell>
        <mxCell id="9NOth7-igrCUzFacUM3O-20" value="Row 1" style="text;strokeColor=none;fillColor=none;spacingLeft=4;spacingRight=4;overflow=hidden;rotatable=0;points=[[0,0.5],[1,0.5]];portConstraint=eastwest;fontSize=12;" vertex="1" parent="9NOth7-igrCUzFacUM3O-19">
          <mxGeometry y="26" width="160" height="26" as="geometry"/>
        </mxCell>
        <mxCell id="9NOth7-igrCUzFacUM3O-21" value="Row 2" style="text;strokeColor=none;fillColor=none;spacingLeft=4;spacingRight=4;overflow=hidden;rotatable=0;points=[[0,0.5],[1,0.5]];portConstraint=eastwest;fontSize=12;" vertex="1" parent="9NOth7-igrCUzFacUM3O-19">
          <mxGeometry y="52" width="160" height="26" as="geometry"/>
        </mxCell>
        <mxCell id="9NOth7-igrCUzFacUM3O-22" value="Row 3" style="text;strokeColor=none;fillColor=none;spacingLeft=4;spacingRight=4;overflow=hidden;rotatable=0;points=[[0,0.5],[1,0.5]];portConstraint=eastwest;fontSize=12;" vertex="1" parent="9NOth7-igrCUzFacUM3O-19">
          <mxGeometry y="78" width="160" height="26" as="geometry"/>
        </mxCell>
        <mxCell id="9NOth7-igrCUzFacUM3O-23" value="bz_dispatch_order_main" style="swimlane;fontStyle=0;childLayout=stackLayout;horizontal=1;startSize=26;fillColor=#e0e0e0;horizontalStack=0;resizeParent=1;resizeParentMax=0;resizeLast=0;collapsible=1;marginBottom=0;swimlaneFillColor=#ffffff;align=center;fontSize=14;" vertex="1" parent="1">
          <mxGeometry x="30" y="280" width="160" height="104" as="geometry">
            <mxRectangle x="130" y="220" width="120" height="26" as="alternateBounds"/>
          </mxGeometry>
        </mxCell>
        <mxCell id="9NOth7-igrCUzFacUM3O-24" value="Row 1" style="text;strokeColor=none;fillColor=none;spacingLeft=4;spacingRight=4;overflow=hidden;rotatable=0;points=[[0,0.5],[1,0.5]];portConstraint=eastwest;fontSize=12;" vertex="1" parent="9NOth7-igrCUzFacUM3O-23">
          <mxGeometry y="26" width="160" height="26" as="geometry"/>
        </mxCell>
        <mxCell id="9NOth7-igrCUzFacUM3O-25" value="Row 2" style="text;strokeColor=none;fillColor=none;spacingLeft=4;spacingRight=4;overflow=hidden;rotatable=0;points=[[0,0.5],[1,0.5]];portConstraint=eastwest;fontSize=12;" vertex="1" parent="9NOth7-igrCUzFacUM3O-23">
          <mxGeometry y="52" width="160" height="26" as="geometry"/>
        </mxCell>
        <mxCell id="9NOth7-igrCUzFacUM3O-26" value="Row 3" style="text;strokeColor=none;fillColor=none;spacingLeft=4;spacingRight=4;overflow=hidden;rotatable=0;points=[[0,0.5],[1,0.5]];portConstraint=eastwest;fontSize=12;" vertex="1" parent="9NOth7-igrCUzFacUM3O-23">
          <mxGeometry y="78" width="160" height="26" as="geometry"/>
        </mxCell>
        <mxCell id="9NOth7-igrCUzFacUM3O-27" value="" style="endArrow=none;html=1;rounded=0;entryX=0;entryY=0.5;entryDx=0;entryDy=0;exitX=1;exitY=0.5;exitDx=0;exitDy=0;" edge="1" parent="1" source="9NOth7-igrCUzFacUM3O-14" target="9NOth7-igrCUzFacUM3O-21">
          <mxGeometry relative="1" as="geometry">
            <mxPoint x="420" y="470" as="sourcePoint"/>
            <mxPoint x="580" y="470" as="targetPoint"/>
          </mxGeometry>
        </mxCell>
        <mxCell id="9NOth7-igrCUzFacUM3O-34" value="1:1" style="text;html=1;align=center;verticalAlign=middle;resizable=0;points=[];;labelBackgroundColor=#ffffff;" vertex="1" connectable="0" parent="9NOth7-igrCUzFacUM3O-27">
          <mxGeometry x="0.5167" relative="1" as="geometry">
            <mxPoint x="-31" as="offset"/>
          </mxGeometry>
        </mxCell>
        <mxCell id="9NOth7-igrCUzFacUM3O-28" value="" style="endArrow=none;html=1;rounded=0;entryX=0;entryY=0.5;entryDx=0;entryDy=0;exitX=1;exitY=0.5;exitDx=0;exitDy=0;" edge="1" parent="1" source="9NOth7-igrCUzFacUM3O-32" target="9NOth7-igrCUzFacUM3O-14">
          <mxGeometry relative="1" as="geometry">
            <mxPoint x="220" y="331.5" as="sourcePoint"/>
            <mxPoint x="310" y="331.5" as="targetPoint"/>
          </mxGeometry>
        </mxCell>
        <mxCell id="9NOth7-igrCUzFacUM3O-32" value="N:1" style="text;html=1;align=center;verticalAlign=middle;resizable=0;points=[];;autosize=1;" vertex="1" parent="1">
          <mxGeometry x="235" y="335" width="30" height="20" as="geometry"/>
        </mxCell>
        <mxCell id="9NOth7-igrCUzFacUM3O-33" value="" style="endArrow=none;html=1;rounded=0;entryX=0;entryY=0.5;entryDx=0;entryDy=0;exitX=1;exitY=0.5;exitDx=0;exitDy=0;" edge="1" parent="1" source="9NOth7-igrCUzFacUM3O-25" target="9NOth7-igrCUzFacUM3O-32">
          <mxGeometry relative="1" as="geometry">
            <mxPoint x="190" y="345" as="sourcePoint"/>
            <mxPoint x="310" y="345" as="targetPoint"/>
          </mxGeometry>
        </mxCell>
      </root>
    </mxGraphModel>
  </diagram>
</mxfile>
